<?xml version="1.0" standalone="no"?>
<!DOCTYPE svg PUBLIC "-//W3C//DTD SVG 20010904//EN"
 "http://www.w3.org/TR/2001/REC-SVG-20010904/DTD/svg10.dtd">
<svg version="1.0" xmlns="http://www.w3.org/2000/svg"
 width="464.000000pt" height="538.000000pt" viewBox="0 0 464.000000 538.000000"
 preserveAspectRatio="xMidYMid meet">

<g transform="translate(0.000000,538.000000) scale(0.100000,-0.100000)"
fill="#000000" stroke="none">
<path d="M2369 4873 c-1 -5 -1 -12 0 -16 1 -5 -7 -11 -18 -14 -10 -3 -21 -13
-24 -24 -4 -14 -14 -19 -41 -19 -24 0 -36 -5 -36 -14 0 -9 -15 -17 -40 -21
-24 -4 -40 -12 -40 -20 0 -8 -15 -17 -35 -21 -19 -3 -35 -12 -35 -19 0 -7 -11
-16 -25 -19 -14 -4 -25 -13 -25 -20 0 -9 -16 -17 -40 -21 -24 -4 -40 -12 -40
-20 0 -8 -15 -17 -35 -21 -20 -3 -35 -12 -35 -20 0 -10 -13 -14 -40 -14 -33 0
-40 -3 -40 -20 0 -15 -7 -20 -25 -20 -14 0 -29 -8 -35 -20 -6 -11 -19 -20 -30
-20 -10 0 -22 -9 -25 -20 -5 -15 -15 -20 -41 -20 -27 0 -34 -4 -34 -20 0 -16
-7 -20 -35 -20 -24 0 -35 -5 -35 -15 0 -9 -9 -15 -25 -15 -18 0 -25 -5 -25
-20 0 -16 -7 -20 -36 -20 -27 0 -37 -5 -41 -19 -3 -12 -17 -21 -39 -26 -19 -3
-34 -12 -34 -20 0 -8 -16 -16 -40 -20 -25 -4 -40 -12 -40 -21 0 -8 -9 -14 -20
-14 -11 0 -23 -7 -26 -15 -3 -8 -21 -17 -40 -21 -19 -3 -34 -12 -34 -19 0 -7
-15 -16 -32 -21 -18 -6 -33 -15 -33 -21 0 -6 -3 -15 -7 -19 -10 -9 -11 -1545
-2 -1569 6 -16 50 -40 67 -37 4 1 7 -2 7 -8 0 -5 7 -10 15 -10 8 0 24 -9 35
-20 11 -11 31 -20 45 -20 15 0 25 -6 25 -14 0 -16 21 -26 55 -26 14 0 25 -7
28 -20 3 -13 14 -20 31 -20 15 0 30 -8 35 -19 6 -10 26 -22 46 -25 19 -4 35
-11 35 -16 0 -6 9 -10 19 -10 11 0 23 -9 26 -20 3 -11 15 -20 26 -20 10 0 28
-9 38 -19 10 -10 33 -22 49 -26 17 -3 33 -13 36 -21 3 -8 15 -14 26 -14 11 0
28 -9 37 -20 10 -11 23 -20 29 -20 6 0 17 -7 24 -15 7 -8 27 -17 46 -21 19 -3
34 -12 34 -19 0 -8 14 -16 30 -20 17 -4 35 -15 40 -26 6 -10 20 -19 30 -19 11
0 20 -7 20 -15 0 -8 7 -15 15 -15 8 0 15 7 15 15 0 8 9 15 20 15 15 0 20 7 20
25 0 14 -4 25 -9 25 -5 0 -12 7 -15 16 -5 14 -4 15 8 5 12 -10 15 8 15 133 1
108 -2 145 -11 149 -10 4 -10 6 0 6 19 1 14 18 -8 24 -12 3 -20 14 -20 26 0
17 -6 21 -35 21 -25 0 -35 4 -35 16 0 9 -9 18 -20 21 -11 3 -20 9 -20 13 0 4
-16 11 -36 14 -19 4 -44 16 -55 27 -10 10 -30 19 -43 19 -15 0 -26 7 -29 20
-3 12 -14 20 -26 20 -11 0 -28 8 -38 19 -10 10 -33 22 -50 26 -18 3 -33 11
-33 16 0 5 -9 9 -20 9 -12 0 -31 11 -44 25 -13 14 -29 25 -35 25 -7 0 -19 6
-27 14 -7 8 -19 16 -25 18 -8 3 -11 156 -10 563 0 308 1 570 1 583 0 15 6 22
20 22 13 0 20 7 20 20 0 13 7 20 19 20 30 0 51 11 51 26 0 8 10 14 25 14 15 0
25 6 25 14 0 9 15 17 40 21 23 4 40 12 40 20 0 7 16 16 35 19 20 4 35 13 35
21 0 8 16 16 41 20 29 5 39 11 35 21 -4 10 2 14 20 14 17 0 28 7 31 20 3 13
17 22 39 26 19 3 34 10 34 15 0 4 15 11 34 14 22 5 36 14 39 26 4 14 14 19 41
19 29 0 36 4 36 20 0 13 7 20 20 20 11 0 20 6 20 14 0 9 16 18 43 24 23 5 41
14 40 20 -2 7 15 15 37 18 24 4 40 12 40 20 0 8 9 14 20 14 11 0 20 6 20 14 0
15 21 26 51 26 18 0 19 10 19 204 0 113 -3 207 -7 209 -18 10 -63 17 -64 10z"/>
<path d="M2407 4080 c-3 -11 -14 -20 -25 -20 -10 0 -27 -9 -37 -20 -10 -11
-27 -20 -37 -20 -11 0 -26 -7 -34 -15 -9 -8 -26 -15 -40 -15 -17 0 -24 -5 -24
-20 0 -16 -7 -20 -31 -20 -22 0 -32 -5 -36 -20 -3 -11 -14 -20 -24 -20 -12 0
-19 -7 -19 -20 0 -17 -7 -20 -45 -20 -38 0 -45 -3 -45 -20 0 -16 -7 -20 -35
-20 -22 0 -35 -5 -35 -13 0 -7 -15 -17 -32 -23 -18 -5 -32 -15 -30 -22 1 -7
-9 -12 -24 -12 -17 0 -28 -6 -31 -19 -3 -11 -13 -21 -24 -24 -18 -5 -19 -19
-19 -351 0 -339 0 -346 20 -346 13 0 20 -7 20 -20 0 -11 6 -20 14 -20 7 0 16
-9 19 -20 3 -12 14 -20 26 -20 14 0 21 -6 21 -20 0 -16 7 -20 34 -20 25 0 35
-5 39 -20 4 -15 14 -20 41 -20 24 0 36 -5 36 -14 0 -8 16 -16 39 -20 27 -4 40
-12 44 -26 3 -11 12 -20 21 -20 9 0 16 -7 16 -15 0 -11 11 -15 36 -15 27 0 37
-5 41 -20 3 -11 14 -20 24 -20 10 0 24 -9 31 -20 7 -11 23 -20 35 -20 12 0 28
-7 37 -15 22 -22 105 -30 112 -11 3 9 21 18 40 22 19 3 34 12 34 19 0 8 15 17
32 21 18 3 38 14 45 23 12 16 15 18 58 20 14 0 24 4 24 9 -4 22 4 30 34 36 22
5 28 9 19 15 -10 6 -8 10 10 14 12 4 31 7 41 7 10 0 25 7 33 15 9 8 24 15 35
15 12 0 19 7 19 20 0 16 7 20 35 20 28 0 35 4 35 19 0 16 8 20 43 23 29 2 42
8 42 18 0 8 8 18 18 22 17 7 18 30 15 363 -2 252 -6 358 -14 363 -7 4 -13 16
-15 27 -3 15 -13 21 -42 23 -21 2 -37 8 -37 16 0 20 -57 56 -90 56 -23 0 -30
4 -30 20 0 16 -7 20 -32 21 -18 0 -27 3 -20 6 22 9 -7 33 -39 33 -22 0 -29 5
-29 20 0 16 -7 20 -31 20 -22 0 -32 5 -36 20 -4 16 -14 20 -44 20 -28 0 -39 4
-39 15 0 8 -8 15 -18 15 -10 0 -28 9 -40 20 -12 11 -29 20 -38 20 -9 0 -18 9
-21 20 -4 15 -14 20 -38 20 -24 0 -34 -5 -38 -20z"/>
<path d="M679 1369 c-18 -18 -19 -32 -17 -227 l3 -207 342 -3 c264 -2 344 1
355 10 8 7 23 18 33 24 11 6 27 25 35 42 8 17 20 32 27 32 13 0 19 68 15 164
-3 57 -7 69 -23 73 -10 3 -19 12 -19 20 0 8 -9 17 -19 20 -11 3 -22 11 -25 19
-3 8 -19 14 -36 14 -19 0 -30 5 -30 14 0 22 -46 25 -343 25 -263 0 -279 -1
-298 -20z m674 -76 c28 -22 37 -37 43 -72 10 -67 -1 -172 -20 -183 -9 -5 -16
-15 -16 -23 0 -19 -122 -27 -395 -23 l-230 3 0 110 c0 61 2 134 4 163 l3 52
288 0 287 0 36 -27z"/>
<path d="M1585 1380 c-3 -5 -3 -39 1 -75 8 -73 27 -88 39 -28 4 21 10 40 14
43 4 3 2 20 -6 38 -13 31 -36 42 -48 22z"/>
<path d="M1823 1382 c-29 -2 -43 -8 -43 -18 0 -8 -6 -14 -14 -14 -7 0 -16 -9
-19 -21 -3 -12 -10 -18 -15 -15 -16 10 -22 -50 -22 -220 l0 -164 35 0 c33 0
35 2 35 34 0 26 5 35 23 40 12 3 151 6 310 6 248 0 287 2 287 15 0 8 9 15 20
15 13 0 20 7 20 20 0 11 6 20 14 20 33 0 35 213 3 232 -9 5 -17 16 -17 23 0 8
-9 15 -20 15 -11 0 -20 6 -20 14 0 9 -20 15 -67 20 -68 6 -430 5 -510 -2z
m555 -68 c21 -6 22 -11 22 -114 0 -103 -1 -108 -22 -114 -13 -3 -152 -6 -310
-6 l-288 0 0 114 c0 111 1 115 23 119 35 7 549 7 575 1z"/>
<path d="M2628 1382 c-16 -2 -28 -9 -28 -18 0 -8 -9 -14 -20 -14 -27 0 -31
-35 -28 -240 3 -173 3 -175 26 -178 23 -4 23 -4 26 66 0 20 8 37 19 43 9 6 17
17 17 24 0 13 36 15 235 15 137 0 235 -4 235 -9 0 -10 83 -95 121 -124 34 -25
63 -18 67 15 3 22 -2 30 -23 38 -15 6 -23 15 -20 21 4 6 -2 13 -14 16 -25 6
-29 43 -5 43 9 0 18 9 21 19 3 11 13 21 22 24 30 7 42 81 26 151 -15 62 -26
76 -62 76 -13 0 -23 6 -23 14 0 10 -16 16 -52 20 -52 6 -487 4 -540 -2z m570
-68 c12 -4 22 -12 22 -19 0 -8 9 -17 20 -20 15 -5 20 -15 20 -40 0 -19 -6 -38
-13 -42 -8 -4 -16 -15 -19 -24 -9 -23 -56 -27 -331 -29 -286 -2 -298 1 -293
70 2 25 7 53 10 63 3 9 8 24 11 32 4 13 43 15 277 15 150 0 283 -3 296 -6z"/>
<path d="M3503 1384 c-7 -3 -13 -12 -13 -20 0 -9 -11 -14 -30 -14 -19 0 -33
-7 -40 -19 -11 -21 -14 -328 -4 -355 3 -9 12 -16 20 -16 8 0 14 -7 14 -15 0
-13 43 -15 330 -15 274 0 330 2 330 14 0 7 9 16 20 19 19 5 20 14 20 181 0
128 -3 178 -12 186 -43 36 -62 50 -67 50 -51 5 -559 8 -568 4z m583 -76 c7
-11 7 -223 1 -273 -6 -45 -5 -45 -297 -45 -153 0 -285 3 -294 6 -9 3 -16 15
-16 25 0 10 -3 19 -7 19 -13 0 -14 71 -3 86 8 9 7 19 -2 35 -10 17 -10 23 0
26 6 3 12 19 12 38 0 18 3 47 6 64 l7 31 293 0 c216 0 295 -3 300 -12z"/>
<path d="M1480 495 c0 -54 4 -75 13 -75 15 0 38 68 26 76 -5 3 -9 21 -9 40 0
24 -5 34 -15 34 -12 0 -15 -15 -15 -75z"/>
<path d="M1829 563 c-1 -5 -2 -21 -3 -38 l-1 -30 -99 -2 c-140 -4 -151 -23
-13 -23 105 0 108 0 117 -25 10 -26 40 -35 40 -12 0 8 3 7 10 -3 5 -8 12 -12
15 -9 9 10 -6 39 -21 39 -10 0 -14 13 -14 44 0 26 -5 47 -12 50 -7 3 1 4 17 1
22 -4 26 -3 15 5 -18 11 -49 13 -51 3z"/>
<path d="M2100 560 c0 -5 14 -10 30 -10 17 0 30 5 30 10 0 6 -13 10 -30 10
-16 0 -30 -4 -30 -10z"/>
<path d="M2217 563 c-3 -5 -5 -39 -5 -76 1 -47 5 -67 14 -67 7 0 14 10 16 23
2 16 12 23 38 28 l35 6 -32 8 c-28 6 -32 12 -35 43 -3 34 -20 53 -31 35z"/>
<path d="M2490 555 c0 -8 7 -15 15 -15 8 0 15 7 15 15 0 8 -7 15 -15 15 -8 0
-15 -7 -15 -15z"/>
<path d="M2557 523 c-7 -59 1 -103 18 -103 7 0 15 12 18 28 8 41 -4 122 -18
122 -7 0 -15 -20 -18 -47z"/>
<path d="M2840 557 c0 -8 7 -14 15 -14 8 0 15 6 15 14 0 7 -7 13 -15 13 -8 0
-15 -6 -15 -13z"/>
<path d="M2017 526 c-7 -17 1 -26 24 -26 9 0 19 -7 23 -15 10 -27 26 -15 26
20 0 33 -2 35 -34 35 -20 0 -36 -6 -39 -14z"/>
<path d="M3092 520 c0 -14 2 -19 5 -12 2 6 2 18 0 25 -3 6 -5 1 -5 -13z"/>
<path d="M3317 517 c-20 -51 -18 -52 143 -52 129 0 150 2 150 16 0 13 -15 15
-114 11 -129 -5 -163 0 -168 26 -3 16 -4 16 -11 -1z"/>
<path d="M1547 494 c-9 -9 3 -34 17 -34 6 0 18 5 26 10 13 9 13 11 0 20 -17
11 -34 13 -43 4z"/>
<path d="M1900 480 c0 -20 4 -22 32 -16 33 7 44 13 36 21 -2 3 -19 8 -36 11
-28 6 -32 4 -32 -16z"/>
<path d="M2323 487 c-10 -16 8 -20 102 -21 78 -1 95 2 95 14 0 12 -17 15 -96
15 -53 0 -98 -4 -101 -8z"/>
<path d="M2698 492 c-64 -3 -80 -22 -19 -22 83 0 161 -13 161 -26 0 -22 17
-16 24 9 3 12 6 27 6 33 0 11 -54 13 -172 6z"/>
<path d="M2140 440 c0 -11 5 -20 10 -20 6 0 10 9 10 20 0 11 -4 20 -10 20 -5
0 -10 -9 -10 -20z"/>
</g>
</svg>
